<svg xmlns="http://www.w3.org/2000/svg" width="17" height="16" viewBox="0 0 17 16" fill="none">
<path d="M1 7C0.447715 7 0 7.44772 0 8C0 8.55228 0.447715 9 1 9V7ZM16.3301 8.70711C16.7207 8.31658 16.7207 7.68342 16.3301 7.29289L9.96619 0.928932C9.57566 0.538408 8.9425 0.538408 8.55197 0.928932C8.16145 1.31946 8.16145 1.95262 8.55197 2.34315L14.2088 8L8.55197 13.6569C8.16145 14.0474 8.16145 14.6805 8.55197 15.0711C8.9425 15.4616 9.57566 15.4616 9.96619 15.0711L16.3301 8.70711ZM1 9H15.623V7H1V9Z" fill="#FFF"/>
</svg>