<svg width="68" height="69" fill="none" xmlns="http://www.w3.org/2000/svg"><path d="M8.5 51.75V34.5c0-6.863 2.687-13.444 7.469-18.296C20.75 11.35 27.237 8.625 34 8.625c6.763 0 13.249 2.726 18.031 7.579C56.813 21.056 59.5 27.637 59.5 34.5v17.25" stroke="#FF4D00" stroke-width="4.773" stroke-linecap="round" stroke-linejoin="round"/><path d="M59.5 54.625a5.793 5.793 0 0 1-1.66 4.066 5.626 5.626 0 0 1-4.007 1.684H51a5.625 5.625 0 0 1-4.007-1.684 5.793 5.793 0 0 1-1.66-4.066V46c0-1.525.597-2.987 1.66-4.066A5.625 5.625 0 0 1 51 40.25h8.5v14.375Zm-51 0c0 1.525.597 2.987 1.66 4.066a5.626 5.626 0 0 0 4.007 1.684H17a5.625 5.625 0 0 0 4.007-1.684 5.793 5.793 0 0 0 1.66-4.066V46a5.793 5.793 0 0 0-1.66-4.066A5.625 5.625 0 0 0 17 40.25H8.5v14.375Z" stroke="#FF4D00" stroke-width="4.773" stroke-linecap="round" stroke-linejoin="round"/></svg>