<svg width="232" height="85" viewBox="0 0 232 85" fill="none" xmlns="http://www.w3.org/2000/svg">
<path d="M144.708 37.9516V0.5H159.956C163.452 0.5 166.323 1.01719 168.57 2.05157C170.817 3.05028 172.476 4.51267 173.546 6.43875C174.651 8.32916 175.204 10.6119 175.204 13.287C175.204 15.9265 174.651 18.2092 173.546 20.1353C172.476 22.0614 170.817 23.5416 168.57 24.576C166.323 25.5747 163.452 26.0741 159.956 26.0741H154.338V37.9516H144.708ZM154.338 18.1557H158.886C161.347 18.1557 163.077 17.7456 164.076 16.9252C165.075 16.1048 165.574 14.8921 165.574 13.287C165.574 11.682 165.075 10.4693 164.076 9.64889C163.077 8.82852 161.347 8.41833 158.886 8.41833H154.338V18.1557Z" fill="#FF4D00"/>
<path d="M110.228 37.9516V0.5H137.514V7.88331H119.858V15.2131H135.909V22.1684H119.858V30.5683H137.514V37.9516H110.228Z" fill="#FF4D00"/>
<path d="M73.2256 37.9516V0.5H91.1488C95.536 0.5 98.7283 1.37387 100.726 3.12161C102.723 4.83368 103.722 7.29479 103.722 10.5049C103.722 12.431 103.223 14.0896 102.224 15.4806C101.225 16.836 99.8875 17.8169 98.2111 18.4233C100.387 18.9226 102.117 19.9392 103.401 21.4729C104.685 22.971 105.327 24.9327 105.327 27.3581C105.327 29.5339 104.845 31.4243 103.882 33.0294C102.955 34.5988 101.493 35.8115 99.4952 36.6675C97.4978 37.5236 94.894 37.9516 91.6839 37.9516H73.2256ZM82.856 30.5683H89.5438C91.8622 30.5683 93.4673 30.2294 94.359 29.5517C95.2507 28.8384 95.6965 27.7505 95.6965 26.2881C95.6965 24.8257 95.2328 23.7378 94.3055 23.0245C93.4138 22.3111 91.773 21.9544 89.3833 21.9544H82.856V30.5683ZM82.856 15.4271H88.7947C90.8635 15.4271 92.2546 15.1061 92.9679 14.4641C93.7169 13.7864 94.0915 12.8412 94.0915 11.6285C94.0915 10.3801 93.7169 9.45271 92.9679 8.84635C92.2546 8.20433 90.8813 7.88331 88.8482 7.88331H82.856V15.4271Z" fill="#FF4D00"/>
<path d="M37.7031 37.9516V0.5H55.6264C60.0136 0.5 63.2059 1.37387 65.2033 3.12161C67.2007 4.83368 68.1994 7.29479 68.1994 10.5049C68.1994 12.431 67.7001 14.0896 66.7014 15.4806C65.7026 16.836 64.3651 17.8169 62.6887 18.4233C64.8644 18.9226 66.5944 19.9392 67.8784 21.4729C69.1625 22.971 69.8045 24.9327 69.8045 27.3581C69.8045 29.5339 69.323 31.4243 68.3599 33.0294C67.4326 34.5988 65.9702 35.8115 63.9727 36.6675C61.9753 37.5236 59.3715 37.9516 56.1614 37.9516H37.7031ZM47.3335 30.5683H54.0213C56.3398 30.5683 57.9448 30.2294 58.8365 29.5517C59.7282 28.8384 60.1741 27.7505 60.1741 26.2881C60.1741 24.8257 59.7104 23.7378 58.783 23.0245C57.8913 22.3111 56.2506 21.9544 53.8608 21.9544H47.3335V30.5683ZM47.3335 15.4271H53.2723C55.341 15.4271 56.7321 15.1061 57.4455 14.4641C58.1945 13.7864 58.569 12.8412 58.569 11.6285C58.569 10.3801 58.1945 9.45271 57.4455 8.84635C56.7321 8.20433 55.3589 7.88331 53.3258 7.88331H47.3335V15.4271Z" fill="#FF4D00"/>
<path d="M175.502 38.5461L188.391 16.8383L179.541 0.5H189.485L194.288 10.1531L199.737 0.5H209.481L198.638 18.5991L231.501 84.9147H222.051L192.792 26.0622L185.946 38.5461H175.502Z" fill="#FF4D00"/>
<path d="M71.2832 83.1315L82.2835 63.9132L71.7657 46.2744H81.3668L87.9766 57.4369L94.6829 46.2744H104.091L93.6215 63.8079L104.573 83.1315H94.8759L87.8319 70.2315L80.7878 83.1315H71.2832Z" fill="white"/>
<path d="M37.4756 83.131V45.6794H64.7617V53.0628H47.106V60.3926H63.1567V67.3479H47.106V75.7477H64.7617V83.131H37.4756Z" fill="white"/>
<path d="M12.003 83.131V53.5978H0.5V45.6794H33.1364V53.5978H21.6334V83.131H12.003Z" fill="white"/>
<path fill-rule="evenodd" clip-rule="evenodd" d="M169.094 46.6948C158.946 46.6948 150.559 54.9211 150.559 65.0688V66.367C150.559 76.5146 158.946 84.7409 169.094 84.7409C179.241 84.7409 187.629 76.5146 187.629 66.3669V65.0687C187.629 54.9211 179.241 46.6948 169.094 46.6948ZM169.094 55.0173C163.336 55.0173 158.668 59.6852 158.668 65.4433V65.9923C158.668 71.7504 163.336 76.4182 169.094 76.4182C174.852 76.4182 179.52 71.7504 179.52 65.9923V65.4433C179.52 59.6852 174.852 55.0173 169.094 55.0173Z" fill="white"/>
<path fill-rule="evenodd" clip-rule="evenodd" d="M110.346 46.2744V83.726H119.976V74.2145H133.887V83.726H143.517V46.2744H133.887V56.3804H119.976V46.2744H110.346ZM134.007 62.3249H119.74V68.2696H134.007V62.3249Z" fill="white"/>
</svg>
