<?xml version="1.0" standalone="no"?>
<!DOCTYPE svg PUBLIC "-//W3C//DTD SVG 20010904//EN"
 "http://www.w3.org/TR/2001/REC-SVG-20010904/DTD/svg10.dtd">
<svg version="1.0" xmlns="http://www.w3.org/2000/svg"
 width="2688.000000pt" height="2688.000000pt" viewBox="0 0 2688.000000 2688.000000"
 preserveAspectRatio="xMidYMid meet">
<metadata>
Created by potrace 1.14, written by Peter Selinger 2001-2017
</metadata>
<g transform="translate(0.000000,2688.000000) scale(0.100000,-0.100000)"
fill="#000000" stroke="none">
<path d="M4052 16203 l3 -2198 1130 -3 c732 -2 1183 1 1280 8 470 33 805 155
1030 375 175 171 281 397 316 671 18 148 7 375 -25 499 -90 346 -354 610 -718
716 l-77 23 104 51 c354 175 535 475 535 889 0 422 -155 739 -457 937 -180
117 -451 193 -782 219 -82 6 -570 10 -1238 10 l-1103 0 2 -2197z m1928 1328
c223 -14 343 -53 421 -139 127 -137 140 -402 28 -568 -59 -87 -139 -132 -284
-160 -77 -15 -154 -18 -525 -18 l-435 -1 -3 435 c-1 239 0 441 3 448 5 15 563
17 795 3z m186 -1662 c198 -22 322 -68 402 -149 87 -89 122 -187 122 -350 0
-269 -106 -411 -352 -470 -130 -31 -331 -41 -758 -38 l-395 3 -3 508 -2 507
445 0 c249 0 488 -5 541 -11z"/>
<path d="M8230 16201 l0 -2201 1143 0 c1137 0 1314 4 1512 36 483 77 815 284
979 611 156 313 175 747 45 1059 -67 160 -198 315 -354 419 -97 65 -178 103
-298 140 -48 15 -86 29 -84 31 2 2 48 26 103 53 385 189 573 556 525 1027 -53
518 -344 839 -876 962 -238 56 -226 55 -1507 59 l-1188 4 0 -2200z m1930 1329
c80 -5 172 -17 205 -25 226 -60 327 -206 313 -453 -12 -186 -104 -315 -263
-366 -105 -33 -184 -38 -617 -43 l-438 -5 0 451 0 451 328 0 c180 0 392 -5
472 -10z m175 -1660 c268 -30 404 -100 480 -250 71 -141 71 -361 0 -507 -38
-77 -126 -154 -215 -187 -143 -53 -212 -58 -747 -63 l-493 -5 0 511 0 511 443
0 c243 0 483 -5 532 -10z"/>
<path d="M12580 16200 l0 -2200 1600 0 1600 0 0 430 0 430 -1037 2 -1038 3 0
495 0 495 943 3 942 2 0 405 0 405 -942 2 -943 3 0 430 0 430 1038 3 1037 2 0
430 0 430 -1600 0 -1600 0 0 -2200z"/>
<path d="M16630 16201 l0 -2201 563 2 562 3 3 698 2 697 423 0 c540 0 705 14
969 80 367 92 641 275 821 550 179 274 258 626 228 1013 -23 300 -90 509 -236
733 -184 283 -515 481 -950 568 -241 49 -251 49 -1347 53 l-1038 4 0 -2200z
m1910 1255 c259 -35 410 -125 485 -288 42 -91 58 -188 52 -308 -9 -171 -50
-273 -149 -367 -88 -83 -198 -128 -373 -154 -98 -14 -788 -20 -792 -6 -2 4 -3
261 -3 572 l0 565 338 0 c232 0 370 -5 442 -14z"/>
<path d="M20313 18393 c8 -16 905 -1517 1083 -1814 101 -168 184 -311 184
-318 0 -12 -39 -82 -312 -556 -85 -148 -217 -378 -293 -510 -76 -132 -268
-466 -426 -742 -159 -276 -289 -507 -289 -513 0 -7 193 -9 606 -8 l606 3 102
185 c56 102 196 356 310 565 340 621 387 705 395 705 4 0 37 -62 74 -137 75
-154 1210 -2440 2508 -5048 l855 -1720 552 -3 c304 -1 552 -1 552 2 0 2 -450
912 -1001 2022 -550 1111 -1061 2141 -1134 2289 -74 149 -492 992 -929 1874
-720 1452 -794 1607 -783 1625 36 56 1257 2097 1257 2101 0 3 -256 5 -568 5
l-568 0 -21 -37 c-80 -141 -789 -1312 -794 -1313 -4 0 -139 222 -299 493 -161
270 -342 574 -402 675 l-109 182 -580 0 c-319 0 -578 -3 -576 -7z"/>
<path d="M0 12625 l0 -465 675 0 675 0 0 -1735 0 -1735 565 0 565 0 0 1735 0
1735 678 2 677 3 3 463 2 462 -1920 0 -1920 0 0 -465z"/>
<path d="M4350 10890 l0 -2200 1600 0 1600 0 0 435 0 435 -1035 0 -1035 0 0
490 0 490 940 0 940 0 0 410 0 410 -940 0 -940 0 0 430 0 430 1035 0 1035 0 0
435 0 435 -1600 0 -1600 0 0 -2200z"/>
<path d="M7900 13016 c0 -2 277 -468 616 -1036 l615 -1032 -207 -362 c-114
-198 -403 -703 -642 -1121 -239 -418 -436 -763 -439 -767 -2 -5 247 -8 554 -8
l558 0 21 38 c12 20 67 120 122 222 226 418 674 1235 680 1242 7 7 71 -106
262 -457 232 -427 563 -1031 569 -1038 4 -4 262 -6 573 -5 l566 3 -57 100
c-32 55 -137 240 -233 410 -170 300 -656 1159 -879 1551 -60 106 -109 197
-109 204 0 6 147 257 327 558 179 301 454 761 610 1022 l283 475 -542 3 c-299
1 -548 0 -555 -2 -6 -3 -186 -295 -399 -650 -213 -355 -390 -646 -394 -646 -4
0 -51 73 -103 163 -52 89 -186 315 -297 502 -111 187 -241 406 -288 487 l-87
148 -562 0 c-310 0 -563 -2 -563 -4z"/>
<path d="M12590 10820 l0 -2200 565 0 565 0 0 560 0 560 815 0 815 0 2 -557 3
-558 568 -3 567 -2 0 2200 0 2200 -567 -2 -568 -3 -3 -592 -2 -593 -815 0
-815 0 0 595 0 595 -565 0 -565 0 0 -2200z m2780 -35 l0 -345 -840 0 -840 0 0
345 0 345 840 0 840 0 0 -345z"/>
<path d="M19225 12955 c-394 -48 -800 -222 -1109 -474 -238 -195 -444 -453
-577 -726 -103 -211 -171 -434 -205 -670 -24 -168 -24 -536 0 -700 70 -473
269 -882 590 -1214 187 -192 381 -334 609 -446 600 -295 1312 -296 1913 -4
457 222 840 622 1040 1084 129 298 184 577 184 930 0 262 -23 440 -86 658
-106 369 -286 672 -563 947 -474 470 -1131 695 -1796 615z m481 -980 c348 -61
669 -286 844 -591 94 -165 144 -326 162 -526 60 -655 -344 -1217 -974 -1354
-112 -24 -314 -29 -430 -10 -269 44 -489 156 -678 344 -189 188 -299 401 -345
666 -20 115 -19 343 0 466 81 496 471 899 970 1000 116 24 330 26 451 5z"/>
</g>
</svg>
