<svg xmlns="http://www.w3.org/2000/svg" version="1.1" xmlns:xlink="http://www.w3.org/1999/xlink" width="512" height="512" x="0" y="0" viewBox="0 0 24 24" style="enable-background:new 0 0 512 512" xml:space="preserve" fill-rule="evenodd" class=""><g><path d="M6.25 22.75H5c-.69 0-1.25-.56-1.25-1.25V18a3.752 3.752 0 0 1 2.819-3.633l.97 3.883H7.5c-.69 0-1.25.56-1.25 1.25zm1.836-8.5H10a.75.75 0 0 1 .75.75 1.25 1.25 0 0 0 2.5 0 .75.75 0 0 1 .75-.75h1.914l-1 4H9.086zm9.345.117A3.75 3.75 0 0 1 20.25 18v3.5c0 .69-.56 1.25-1.25 1.25h-1.25V19.5c0-.69-.56-1.25-1.25-1.25h-.039zM16.25 22.75h-8.5v-3h8.5zM9.75 4.5V2a.75.75 0 0 1 .75-.75h3a.75.75 0 0 1 .75.75v2.5a.75.75 0 0 1-.75.75h-3a.75.75 0 0 1-.75-.75zM17 6.25a.75.75 0 0 1 0 1.5H7a.75.75 0 0 1 0-1.5z" fill="#ff4d00" opacity="1" data-original="#000000" class=""></path><path d="M16.75 9v.5a4.75 4.75 0 0 1-9.5 0V9zM15.5 2.937a3.25 3.25 0 0 1 1.25 2.561V7a.75.75 0 0 1-.75.75H8A.75.75 0 0 1 7.25 7V5.498A3.25 3.25 0 0 1 8.5 2.937V4.5a2 2 0 0 0 2 2h3a2 2 0 0 0 2-2z" fill="#ff4d00" opacity="1" data-original="#000000" class=""></path></g></svg>