<svg xmlns="http://www.w3.org/2000/svg" width="22" height="22" fill="none"><path fill="#fff" fill-rule="evenodd" d="M11 8.8V11h2.2A2.2 2.2 0 0 0 11 8.8Zm0-4.4v2.2c2.427 0 4.4 1.974 4.4 4.4h2.2A6.6 6.6 0 0 0 11 4.4ZM11 0v2.2c4.852 0 8.8 3.948 8.8 8.8H22c0-6.075-4.925-11-11-11Zm5.117 20.058c-.013.04-.012.034 0 0Zm-.588-2.921c-.765-.412-1.538-.88-2.338-1.207-1.545-.63-1.44 1.233-2.544 1.837-.717.392-1.73-.32-2.355-.713a11.11 11.11 0 0 1-2.868-2.643c-.412-.536-1.323-1.544-1.21-2.295.177-1.192 1.588-1.252 1.184-2.71-.216-.782-.602-1.55-.891-2.303-.387-1.009-.547-1.655-1.677-1.6-.816.04-1.357.389-1.859 1.044-1.357 1.767-1.152 4.15-.24 6.09 1.291 2.745 3.504 5.332 5.868 7.004 1.608 1.138 3.727 2.17 5.674 2.345 1.425.129 3.42-.642 3.93-2.19l-.086.262.086-.262.09-.27-.089.267c.449-1.364.504-2.022-.675-2.656Zm.763 2.39c.009-.029.009-.027 0 0Z" clip-rule="evenodd"/></svg>